<svg width="396" height="515" viewBox="0 0 396 515" fill="none" xmlns="http://www.w3.org/2000/svg">
<ellipse cx="259.004" cy="370.898" rx="169.011" ry="72.1315" transform="rotate(-41.8734 259.004 370.898)" fill="black" fill-opacity="0.12"/>
<path d="M329.729 345.825C370.394 309.563 396 256.772 396 198C396 88.6476 307.352 0 198 0C88.6476 0 0 88.6476 0 198C0 255.718 24.6964 307.668 64.0986 343.859C64.74 344.761 65.4652 345.622 66.2742 346.431L183.569 463.726C191.379 471.536 204.042 471.536 211.853 463.726L329.147 346.431C329.346 346.233 329.54 346.03 329.729 345.825Z" fill="#0094FF"/>
<path d="M311 198C311 260.408 260.408 311 198 311C135.592 311 85 260.408 85 198C85 135.592 135.592 85 198 85C260.408 85 311 135.592 311 198Z" fill="black" fill-opacity="0.12"/>
</svg>
